<svg xmlns="http://www.w3.org/2000/svg" viewBox="0 0 1040 500" width="1040" height="500" class="fig">
<style>svg{
    color-scheme: light;
    --bg: #ffffff; --text: #1f2328; --muted: #59636e; --faint: #818b98; --rule: #e3e6ea;
    --quote-bg: #f7f8fa; --link: #0b5cad; --code-bg: #f3f4f6;
    --fig-group: #fbfcfd; --fig-box: #f4f6f8; --fig-stroke: #cfd5dc; --fig-muted: #6b7480;
    --fig-accent: #3b5bdb; --fig-accent-soft: #e8edfd;
    --fig-warn: #b26a00; --fig-warn-soft: #fff1d6;
    --fig-ok: #1f7a4d; --fig-ok-soft: #e3f4ea;
    --fig-bad: #b42318; --fig-bad-soft: #fde8e7;
    --series-1: #2a78d6; --series-2: #eb6834; --series-3: #1baf7a; --series-4: #eda100;
    --grid: #e7e9ec; --axis: #c3c7cd; --good: #006300; --surface: #ffffff;
  }
@media (prefers-color-scheme: dark){svg{
    color-scheme: dark;
    --bg: #121417; --text: #e6e8eb; --muted: #a4acb6; --faint: #7d8591; --rule: #2b3037;
    --quote-bg: #181b1f; --link: #7cb4f0; --code-bg: #1d2126;
    --fig-group: #15181c; --fig-box: #1b1f24; --fig-stroke: #3a424c; --fig-muted: #9aa3ad;
    --fig-accent: #8aa2ff; --fig-accent-soft: #1c2444;
    --fig-warn: #f0b35a; --fig-warn-soft: #33260f;
    --fig-ok: #5fcf8e; --fig-ok-soft: #12291c;
    --fig-bad: #ff8a80; --fig-bad-soft: #3a1714;
    --series-1: #3987e5; --series-2: #d95926; --series-3: #199e70; --series-4: #c98500;
    --grid: #262b31; --axis: #3a414a; --good: #0ca30c; --surface: #121417;
  }}
.fig text { font-family: -apple-system, BlinkMacSystemFont, "Inter", "Segoe UI", Helvetica, Arial, sans-serif; fill: var(--text); }
.fig .h { font-size: 15px; font-weight: 650; }
.fig .t { font-size: 13px; }
.fig .s { font-size: 12px; fill: var(--fig-muted); }
.fig .m { font-family: ui-monospace, SFMono-Regular, Menlo, Consolas, monospace; font-size: 11.5px; fill: var(--fig-muted); }
.fig .group { fill: var(--fig-group); stroke: var(--fig-stroke); stroke-width: 1; }
.fig .box { fill: var(--fig-box); stroke: var(--fig-stroke); stroke-width: 1; }
.fig .box.accent { fill: var(--fig-accent-soft); stroke: var(--fig-accent); }
.fig .box.warn { fill: var(--fig-warn-soft); stroke: var(--fig-warn); }
.fig .box.ok { fill: var(--fig-ok-soft); stroke: var(--fig-ok); }
.fig .box.bad { fill: var(--fig-bad-soft); stroke: var(--fig-bad); }
.fig .code { font-family: ui-monospace, SFMono-Regular, Menlo, Consolas, monospace; font-size: 13px; fill: var(--text); }
.fig text.ok { fill: var(--fig-ok); font-weight: 600; }
.fig .box.dashed { stroke-dasharray: 4 3; }
.fig .edge { fill: none; stroke: var(--fig-muted); stroke-width: 1.5; }
.fig .edge.accent { stroke: var(--fig-accent); }
.fig .edge.warn { stroke: var(--fig-warn); stroke-dasharray: 5 4; }
.fig .edge.dashed { stroke-dasharray: 5 4; }
.fig .edge.dotted { stroke: var(--fig-accent); stroke-dasharray: 2 4; stroke-width: 1.5; }
.fig .tick { fill: none; stroke: var(--fig-stroke); stroke-width: 1; }
.fig .big { font-size: 28px; font-weight: 700; letter-spacing: -0.01em; }
.fig .strong { font-weight: 650; fill: var(--text); }
.fig .s1 { fill: var(--series-1); }
.fig .s2 { fill: var(--series-2); }
.fig .s3 { fill: var(--series-3); }
.fig .s4 { fill: var(--series-4); }
.fig .ring { stroke: var(--surface); stroke-width: 2; }
.fig .grid { stroke: var(--grid); stroke-width: 1; }
.fig .axis { stroke: var(--axis); stroke-width: 1; }
.fig .num { font-variant-numeric: tabular-nums; }
.fig .hero { font-size: 56px; font-weight: 700; letter-spacing: -0.02em; fill: var(--text); }
.fig .good { fill: var(--good); font-weight: 600; }
.fig .spark { fill: none; stroke: var(--fig-muted); stroke-width: 2; stroke-linejoin: round; stroke-linecap: round; }
.fig .spark-end { fill: var(--series-1); stroke: var(--surface); stroke-width: 2; }
.fig .dashed-line { stroke-dasharray: 4 4; }
.fig .halo { paint-order: stroke; stroke: var(--bg); stroke-width: 5px; stroke-linejoin: round; }
.fig .canvas { fill: var(--fig-group); stroke: var(--fig-stroke); }
.fig .card { fill: var(--bg); stroke: var(--fig-stroke); stroke-width: 1; }
.fig .strong-card { stroke: var(--fig-muted); stroke-width: 1.6; }
.fig .cardfoot { fill: var(--fig-box); }
.fig .tile { fill: var(--fig-box); }
.fig .tile.accent { fill: var(--fig-accent-soft); }
.fig .tile.ok { fill: var(--fig-ok-soft); }
.fig .tile.warn { fill: var(--fig-warn-soft); }
.fig .glyph { fill: none; stroke: var(--fig-muted); stroke-width: 1.8; stroke-linecap: round; stroke-linejoin: round; }
.fig .glyph.accent { stroke: var(--fig-accent); }
.fig .glyph.ok { stroke: var(--fig-ok); }
.fig .glyph.warn { stroke: var(--fig-warn); }
.fig .glyphfill { fill: var(--fig-muted); }
.fig .glyphfill.accent { fill: var(--fig-accent); }
.fig .glyphfill.ok { fill: var(--fig-ok); }
.fig .glyphfill.warn { fill: var(--fig-warn); }
.ah { fill: var(--fig-muted); }
.ah.accent { fill: var(--fig-accent); }
.ah.warn { fill: var(--fig-warn); }.dotgrid { fill: var(--rule); }
</style>
<defs>
    <marker id="ah" viewBox="0 0 10 10" refX="9" refY="5" markerWidth="7" markerHeight="7" orient="auto-start-reverse">
      <path class="ah" d="M0,0 L10,5 L0,10 z"/>
    </marker>
    <marker id="ah-accent" viewBox="0 0 10 10" refX="9" refY="5" markerWidth="7" markerHeight="7" orient="auto-start-reverse">
      <path class="ah accent" d="M0,0 L10,5 L0,10 z"/>
    </marker>
    <marker id="ah-warn" viewBox="0 0 10 10" refX="9" refY="5" markerWidth="7" markerHeight="7" orient="auto-start-reverse">
      <path class="ah warn" d="M0,0 L10,5 L0,10 z"/>
    </marker>
    <pattern id="dots" width="18" height="18" patternUnits="userSpaceOnUse">
      <circle class="dotgrid" cx="2" cy="2" r="1"/>
    </pattern>
  </defs>
<rect x="0" y="0" width="1040.0" height="500.0" rx="12" style="fill:var(--bg)"/>
<g class="fig">
<title id="fflow">Architecture flow: people, GitHub, the orchestrator, Devin sessions, the verifier, the store and the results</title>
<rect class="canvas" x="0" y="0" width="1040" height="500" rx="14"/>
<rect x="0" y="0" width="1040" height="500" rx="14" fill="url(#dots)"/>
<path class="edge" d="M270 80 H406" marker-end="url(#ah)"/>
<text class="s halo" x="338" y="72" text-anchor="middle">labels, replies, merges</text>
<path class="edge" d="M160 128 V198" marker-end="url(#ah)"/>

<path class="edge" d="M500 128 V198" marker-end="url(#ah)"/>
<text class="s halo" x="492" y="168" text-anchor="end">labelled issues, comments</text>
<path class="edge" d="M540 202 V132" marker-end="url(#ah)"/>
<text class="s halo" x="548" y="168" text-anchor="start">labels, statuses, merges</text>

<path class="edge" d="M630 238 H766" marker-end="url(#ah)"/>
<text class="s halo" x="698" y="230" text-anchor="middle">start, message</text>
<path class="edge dashed" d="M770 262 H634" marker-end="url(#ah)"/>
<text class="s halo" x="702" y="280" text-anchor="middle">structured output</text>
<path class="edge" d="M880 202 V88 Q880 80 872 80 H634" marker-end="url(#ah)"/>
<text class="s halo" x="752" y="72" text-anchor="middle">comments, pull requests</text>
<path class="edge" d="M520 298 V368" marker-start="url(#ah)" marker-end="url(#ah)"/>
<text class="s halo" x="528" y="338" text-anchor="start">records</text>
<path class="edge" d="M410 420 H168 Q160 420 160 412 V302" marker-end="url(#ah)"/>
<text class="s halo" x="285" y="412" text-anchor="middle">numbers</text>
<path class="edge" d="M580 298 V332 Q580 340 588 340 H872 Q880 340 880 348 V368" marker-start="url(#ah)" marker-end="url(#ah)"/>
<text class="s halo" x="730" y="332" text-anchor="middle">tests on base and head, verdict</text>
<rect class="card" x="50" y="32" width="220" height="96" rx="12"/>
<path class="cardfoot" d="M50 100 H270 V116 Q270 128 258 128 H62 Q50 128 50 116 Z"/>
<line class="tick" x1="50" y1="100" x2="270" y2="100"/>
<rect class="tile warn" x="64" y="46" width="36" height="36" rx="9"/>
<circle class="glyph warn" cx="82" cy="60" r="4.5"/><path class="glyph warn" d="M74 73 Q82 63 90 73"/>
<text class="h" x="112" y="62">People</text>
<text class="s" x="112" y="80">file, decide, merge</text>
<circle class="glyphfill warn" cx="68" cy="114" r="3.5"/>
<text class="s strong" x="78" y="118">decide at two gates</text>
<rect class="card" x="410" y="32" width="220" height="96" rx="12"/>
<path class="cardfoot" d="M410 100 H630 V116 Q630 128 618 128 H422 Q410 128 410 116 Z"/>
<line class="tick" x1="410" y1="100" x2="630" y2="100"/>
<rect class="tile muted" x="424" y="46" width="36" height="36" rx="9"/>
<circle class="glyph muted" cx="442" cy="64" r="8"/><circle class="glyphfill muted" cx="442" cy="64" r="2.2"/>
<text class="h" x="472" y="62">GitHub</text>
<text class="s" x="472" y="80">issues · pull requests</text>
<circle class="glyphfill muted" cx="428" cy="114" r="3.5"/>
<text class="s strong" x="438" y="118">system of record</text>
<rect class="card" x="50" y="202" width="220" height="96" rx="12"/>
<path class="cardfoot" d="M50 270 H270 V286 Q270 298 258 298 H62 Q50 298 50 286 Z"/>
<line class="tick" x1="50" y1="270" x2="270" y2="270"/>
<rect class="tile muted" x="64" y="216" width="36" height="36" rx="9"/>
<rect class="glyph muted" x="73" y="227" width="18" height="14" rx="2"/><path class="glyph muted" d="M73 231 H91"/>
<text class="h" x="112" y="232">Results</text>
<text class="s" x="112" y="250">API · dashboard pages</text>
<circle class="glyphfill muted" cx="68" cy="284" r="3.5"/>
<text class="s strong" x="78" y="288">read-only</text>
<rect class="card" x="410" y="202" width="220" height="96" rx="12"/>
<path class="cardfoot" d="M410 270 H630 V286 Q630 298 618 298 H422 Q410 298 410 286 Z"/>
<line class="tick" x1="410" y1="270" x2="630" y2="270"/>
<rect class="tile muted" x="424" y="216" width="36" height="36" rx="9"/>
<path class="glyph muted" d="M434 235 A8 8 0 0 1 448 228"/><path class="glyph muted" d="M445 226 L449 228 L447 232"/><path class="glyph muted" d="M450 233 A8 8 0 0 1 436 240"/><path class="glyph muted" d="M439 242 L435 240 L437 236"/>
<text class="h" x="472" y="232">Orchestrator</text>
<text class="s" x="472" y="250">the Bug Smasher service</text>
<circle class="glyphfill muted" cx="428" cy="284" r="3.5"/>
<text class="s strong" x="438" y="288">one cycle a minute</text>
<rect class="card" x="770" y="202" width="220" height="96" rx="12"/>
<path class="cardfoot" d="M770 270 H990 V286 Q990 298 978 298 H782 Q770 298 770 286 Z"/>
<line class="tick" x1="770" y1="270" x2="990" y2="270"/>
<rect class="tile accent" x="784" y="216" width="36" height="36" rx="9"/>
<polygon class="glyph accent" points="802,225 810,229.5 810,238.5 802,243 794,238.5 794,229.5"/><circle class="glyphfill accent" cx="802" cy="234" r="2.5"/>
<text class="h" x="832" y="232">Devin sessions</text>
<text class="s" x="832" y="250">triage, then fix</text>
<circle class="glyphfill accent" cx="788" cy="284" r="3.5"/>
<text class="s strong" x="798" y="288">one session per bug</text>
<rect class="card" x="410" y="372" width="220" height="96" rx="12"/>
<path class="cardfoot" d="M410 440 H630 V456 Q630 468 618 468 H422 Q410 468 410 456 Z"/>
<line class="tick" x1="410" y1="440" x2="630" y2="440"/>
<rect class="tile muted" x="424" y="386" width="36" height="36" rx="9"/>
<ellipse class="glyph muted" cx="442" cy="398" rx="8" ry="3"/><path class="glyph muted" d="M434 398 V410 A8 3 0 0 0 450 410 V398 M434 404 A8 3 0 0 0 450 404"/>
<text class="h" x="472" y="402">Store</text>
<text class="s" x="472" y="420">one record per bug</text>
<circle class="glyphfill muted" cx="428" cy="454" r="3.5"/>
<text class="s strong" x="438" y="458">only what GitHub can't hold</text>
<rect class="card" x="770" y="372" width="220" height="96" rx="12"/>
<path class="cardfoot" d="M770 440 H990 V456 Q990 468 978 468 H782 Q770 468 770 456 Z"/>
<line class="tick" x1="770" y1="440" x2="990" y2="440"/>
<rect class="tile ok" x="784" y="386" width="36" height="36" rx="9"/>
<path class="glyph ok" d="M802 395 L810 398 V405 Q810 411 802 414 Q794 411 794 405 V398 Z"/><path class="glyph ok" d="M798 404 L801 407 L806 401"/>
<text class="h" x="832" y="402">Verifier</text>
<text class="s" x="832" y="420">repo's test image</text>
<circle class="glyphfill ok" cx="788" cy="454" r="3.5"/>
<text class="s strong" x="798" y="458">fails before, passes after</text>
</g>
</svg>
